<svg width="104" height="57.99999999999999" xmlns="http://www.w3.org/2000/svg" preserveAspectRatio="xMidYMid meet">
 <g>
  <title>background</title>
  <rect fill="none" id="canvas_background" height="60" width="106" y="-1" x="-1"/>
 </g>

 <g>
  <title>Layer 1</title>
  <!-- S vectors -->
  <path fill="#000000" id="svg_2" d="m60,2c-4.2,1.9 -6.5,5.3 -6.5,9.6l0,2.5l11,0l11,0l0,-7l0,-7l-5.7,0c-3.4,0 -7.5,0.8 -9.8,1.9z"/>
  <path fill="#000000" id="svg_3" d="m80.5,7.1l0,7l11.5,0l11.6,0l-0.3,-6.8l-0.3,-6.7l-11.2,-0.3l-11.3,-0.3l0,7.1z"/>
  <path fill="#000000" id="svg_7" d="m53.5,22.1c0,10 4.6,14 16,14l6,0l0,-9.5l0,-9.5l-11,0l-11,0l0,5z"/>
  <path fill="#000000" id="svg_9" d="m80.5,32.1l0,9l11.5,0l11.5,0l0,-3.3c0,-10.7 -4.3,-14.7 -15.7,-14.7l-7.3,0l0,9z"/>
  <path fill="#000000" id="svg_12" d="m53.5,51.6l0,6.5l11,0l11,0l0,-6.5l0,-6.5l-11,0l-11,0l0,6.5z"/>
  <path fill="#000000" id="svg_13" d="m80.5,51.6l0,6.5l7.3,0c9.1,0 13.1,-2.1 14.6,-7.7c0.6,-2.1 1.1,-4.1 1.1,-4.6c0,-0.4 -5.2,-0.7 -11.5,-0.7l-11.5,0l0,6.5z"/>
  <!-- D vectors -->
  <path fill="#a7ba06" id="svg_4" d="m0.94452,9.81453c-0.1,3.2 0.2,4.1 1.1,3.5c3.77863,-0.01624 9.94359,-0.17265 20.1,0.3l4.7,0.4l0,-6.5l0,-6.5l-13.2,0.2l-13.3,0.2l0.6,8.4z"/>
  <path fill="#a7ba06" id="svg_5" d="m31.4,6.1c-0.1,2.7 -0.2,5.6 -0.3,6.2c-0.1,0.9 2.6,1.4 9.2,1.6c9.1,0.3 9.2,0.3 9.2,-2c0,-3.3 -3.6,-8.7 -6.6,-9.8c-1.4,-0.6 -4.5,-1 -7,-1l-4.4,0l-0.1,5z"/>
  <path fill="#a7ba06" id="svg_6" d="m32.3,17.8c-1.6,0.4 -1.8,1.8 -1.8,11.9l0,11.4l9.5,0l9.5,0l0,-12l0,-12l-7.7,0.1c-4.3,0.1 -8.6,0.3 -9.5,0.6z"/>
  <path fill="#a7ba06" id="svg_8" d="m0.6,29.6l-0.2,11.5l9.1,0l9,0l0,-11.5l0,-11.5l-8.9,0l-8.9,0l-0.1,11.5z"/>
  <path fill="#a7ba06" id="svg_10" d="m0.5,51.6l0,6.5l13,0l13,0l0,-6.5l0,-6.5l-13,0l-13,0l0,6.5z"/>
  <path fill="#a7ba06" id="svg_11" d="m30.5,51.6l0,6.5l4.9,0c2.7,0 6.1,-0.4 7.5,-1c3,-1.1 6.6,-6.5 6.6,-9.8c0,-2.1 -0.3,-2.2 -9.5,-2.2l-9.5,0l0,6.5z"/>
 </g>
</svg>