<svg width="108.99999999999999" height="64" xmlns="http://www.w3.org/2000/svg" preserveAspectRatio="xMidYMid meet">
 <g>
  <title>background</title>
  <rect fill="none" id="canvas_background" height="66" width="111" y="-1" x="-1"/>
 </g>

 <g>
  <title>Layer 1</title>
  <path fill="#ffffff" id="svg_2" d="m62.5,4.9c-4.2,1.9 -6.5,5.3 -6.5,9.6l0,2.5l11,0l11,0l0,-7l0,-7l-5.7,0c-3.4,0 -7.5,0.8 -9.8,1.9z"/>
  <path fill="#ffffff" id="svg_3" d="m83,10l0,7l11.5,0l11.6,0l-0.3,-6.8l-0.3,-6.7l-11.2,-0.3l-11.3,-0.3l0,7.1z"/>
  <path fill="#7fff00" id="svg_4" d="m15.5,5l13,0.6l-10,0.4l-10,0.4l7.5,0.6c6.4,0.5 6.8,0.7 3,1c-2.5,0.2 -5.2,0.4 -6,0.6c-0.8,0.1 -2.2,0.3 -3,0.4c-0.8,0.1 -0.1,0.6 1.5,1c2.6,0.7 2.3,0.8 -2.2,0.9c-3.3,0.1 -5.3,-0.4 -5.6,-1.2c-0.3,-0.6 -0.6,0.7 -0.6,3.1c-0.1,3.2 0.2,4.1 1.1,3.5c1.3,-0.7 10.2,-0.6 20.1,0.3l4.7,0.4l0,-6.5l0,-6.5l-13.2,0.2l-13.3,0.2l13,0.6zm-1.7,8.7c-1.5,0.2 -4.2,0.2 -6,0c-1.8,-0.2 -0.6,-0.4 2.7,-0.4c3.3,0 4.8,0.2 3.3,0.4z"/>
  <path fill="#7fff00" id="svg_5" d="m33.9,9c-0.1,2.7 -0.2,5.6 -0.3,6.2c-0.1,0.9 2.6,1.4 9.2,1.6c9.1,0.3 9.2,0.3 9.2,-2c0,-3.3 -3.6,-8.7 -6.6,-9.8c-1.4,-0.6 -4.5,-1 -7,-1l-4.4,0l-0.1,5z"/>
  <path fill="#7fff00" id="svg_6" d="m34.8,20.7c-1.6,0.4 -1.8,1.8 -1.8,11.9l0,11.4l9.5,0l9.5,0l0,-12l0,-12l-7.7,0.1c-4.3,0.1 -8.6,0.3 -9.5,0.6z"/>
  <path fill="#ffffff" id="svg_7" d="m56,25c0,10 4.6,14 16,14l6,0l0,-9.5l0,-9.5l-11,0l-11,0l0,5z"/>
  <path fill="#7fff00" id="svg_8" d="m3.1,32.5l-0.2,11.5l9.1,0l9,0l0,-11.5l0,-11.5l-8.9,0l-8.9,0l-0.1,11.5z"/>
  <path fill="#ffffff" id="svg_9" d="m83,35l0,9l11.5,0l11.5,0l0,-3.3c0,-10.7 -4.3,-14.7 -15.7,-14.7l-7.3,0l0,9z"/>
  <path fill="#7fff00" id="svg_10" d="m3,54.5l0,6.5l13,0l13,0l0,-6.5l0,-6.5l-13,0l-13,0l0,6.5z"/>
  <path fill="#7fff00" id="svg_11" d="m33,54.5l0,6.5l4.9,0c2.7,0 6.1,-0.4 7.5,-1c3,-1.1 6.6,-6.5 6.6,-9.8c0,-2.1 -0.3,-2.2 -9.5,-2.2l-9.5,0l0,6.5z"/>
  <path fill="#ffffff" id="svg_12" d="m56,54.5l0,6.5l11,0l11,0l0,-6.5l0,-6.5l-11,0l-11,0l0,6.5z"/>
  <path fill="#ffffff" id="svg_13" d="m83,54.5l0,6.5l7.3,0c9.1,0 13.1,-2.1 14.6,-7.7c0.6,-2.1 1.1,-4.1 1.1,-4.6c0,-0.4 -5.2,-0.7 -11.5,-0.7l-11.5,0l0,6.5z"/>
  <line stroke="#7fff00" transform="rotate(-3.9598724842071533 3.7260637283325355,7.505910873413088) " stroke-linecap="null" stroke-linejoin="null" id="svg_34" y2="10.67441" x2="4.02738" y1="4.33741" x1="3.42475" fill-opacity="0" stroke-width="null" fill="none"/>
  <line stroke="#7fff00" transform="rotate(-0.027897460386157036 16.026245117185443,5.1545515060449905) " stroke-linecap="null" stroke-linejoin="null" id="svg_42" y2="5.47062" x2="28.40689" y1="4.83848" x1="3.6456" stroke-width="NaN" fill="none"/>
  <line stroke="#7fff00" stroke-linecap="null" stroke-linejoin="null" id="svg_43" y2="6.23441" x2="23.90782" y1="5.23691" x1="3.86534" stroke-width="NaN" fill="none"/>
  <line transform="rotate(-3.9598724842071533 13.15461349487306,6.670821189880368) " stroke="#7fff00" stroke-linecap="null" stroke-linejoin="null" id="svg_44" y2="7.66833" x2="22.50624" y1="5.67331" x1="3.80299" stroke-width="NaN" fill="none"/>
  <line transform="rotate(-3.9598724842071533 11.876559257507324,7.107230186462412) " stroke="#7fff00" stroke-linecap="null" stroke-linejoin="null" id="svg_45" y2="8.10474" x2="20.51122" y1="6.10972" x1="3.2419" stroke-width="NaN" fill="none"/>
  <line stroke="#7fff00" stroke-linecap="null" stroke-linejoin="null" id="svg_46" y2="7.16957" x2="21.69576" y1="7.16957" x1="3.92768" stroke-width="NaN" fill="none"/>
  <line stroke-linecap="null" stroke-linejoin="null" id="svg_49" y2="7.73067" x2="21.69576" y1="7.79301" x1="4.17706" stroke-width="NaN" stroke="#7fff00" fill="none"/>
  <line stroke-linecap="null" stroke-linejoin="null" id="svg_50" y2="8.35411" x2="16.45885" y1="8.35411" x1="4.2394" stroke-width="NaN" stroke="#7fff00" fill="none"/>
  <line stroke-linecap="null" stroke-linejoin="null" id="svg_51" y2="9.22693" x2="14.21446" y1="8.91521" x1="4.2394" stroke-width="NaN" stroke="#7fff00" fill="none"/>
  <line stroke-linecap="null" stroke-linejoin="null" id="svg_52" y2="9.66334" x2="14.33915" y1="9.60099" x1="4.30175" stroke-width="NaN" stroke="#7fff00" fill="none"/>
  <line stroke-linecap="null" stroke-linejoin="null" id="svg_53" y2="10.41147" x2="14.02743" y1="10.28678" x1="4.55112" stroke-width="NaN" stroke="#7fff00" fill="none"/>
  <line stroke-linecap="null" stroke-linejoin="null" id="svg_54" y2="10.84788" x2="12.96758" y1="10.78553" x1="5.29925" stroke-width="NaN" stroke="#7fff00" fill="none"/>
  <line stroke-linecap="null" stroke-linejoin="null" id="svg_55" y2="13.59102" x2="15.33666" y1="13.71571" x1="6.67082" stroke-width="NaN" stroke="#7fff00" fill="none"/>
  <line stroke-linecap="null" stroke-linejoin="null" id="svg_56" y2="6.17207" x2="7.29426" y1="5.67331" x1="3.6783" stroke-width="NaN" stroke="#7fff00" fill="none"/>
  <line stroke-linecap="null" stroke-linejoin="null" id="svg_58" y2="6.04738" x2="10.47382" y1="5.86035" x1="6.9202" stroke-width="null" stroke="#7fff00" fill="none"/>
 </g>
</svg>